# xmcd CD database file
# Copyright (C) 1993-1998 Ti Kan
# 
# Track frame offsets:
#     150
#     19392
#     33180
#     42605
#     51917
#     61385
#     72892
#     85800
#     94405
#     107702
# 
# Disc length: 1626 seconds
# 
# Revision: 1
# Processed by: cddbd v1.4b41PL1 Copyright (c) Steve Scherf et al.
# Submitted via: DiscPlay 4.0.4
# 
DISCID=8906580a
DTITLE=Boxcar Willie - Winds of Yesterday
DYEAR=1900
DGENRE=
TTITLE0=Winds of Yesterday
TTITLE1=Rose
TTITLE2=Hello Self
TTITLE3=Lying Time Again
TTITLE4=Honky Tonk Cowboy
TTITLE5=Youth of Yesterday
TTITLE6=I Can Handle It
TTITLE7=Real True Lovin' Man
TTITLE8=Who
TTITLE9=Heartache Blues
EXTD=
EXTT0=
EXTT1=
EXTT2=
EXTT3=
EXTT4=
EXTT5=
EXTT6=
EXTT7=
EXTT8=
EXTT9=
PLAYORDER=
